<?xml version="1.0" standalone="no"?>
<!DOCTYPE svg PUBLIC "-//W3C//DTD SVG 20010904//EN"
 "http://www.w3.org/TR/2001/REC-SVG-20010904/DTD/svg10.dtd">
<svg version="1.0" xmlns="http://www.w3.org/2000/svg"
 width="110.000000pt" height="107.000000pt" viewBox="0 0 110.000000 107.000000"
 preserveAspectRatio="xMidYMid meet">

<g transform="translate(0.000000,107.000000) scale(0.100000,-0.100000)"
fill="#000000" stroke="none">
<path d="M370 729 l-283 -291 64 -64 65 -65 32 17 c40 20 77 12 114 -24 30
-28 38 -85 17 -124 -10 -18 -4 -28 47 -79 32 -33 63 -59 69 -59 7 0 139 131
295 291 l283 291 -64 64 -65 65 -32 -16 c-65 -33 -142 14 -142 87 0 22 5 49
11 60 10 18 4 28 -47 79 -32 33 -63 59 -69 59 -7 0 -139 -131 -295 -291z m340
91 c0 -61 31 -108 90 -138 32 -16 56 -22 82 -19 28 4 41 0 56 -17 l20 -21 -63
-70 -64 -70 -31 30 c-31 29 -32 29 -46 11 -18 -26 -18 -29 6 -51 11 -10 20
-23 20 -29 0 -6 -64 -75 -142 -153 l-142 -143 -23 22 c-18 16 -23 32 -23 68 0
61 -31 108 -90 138 -32 16 -56 22 -82 19 -29 -4 -41 0 -58 18 l-21 23 144 148
145 149 32 -30 32 -30 20 25 20 24 -26 23 c-14 12 -26 26 -26 30 0 4 28 36 62
70 l62 63 23 -22 c18 -16 23 -32 23 -68z"/>
<path d="M615 650 c-19 -20 -18 -22 23 -63 l42 -42 22 23 22 22 -39 40 c-21
22 -42 40 -45 40 -4 0 -15 -9 -25 -20z"/>
</g>
</svg>
